<svg width="32" height="32" viewBox="0 0 32 32" fill="none" xmlns="http://www.w3.org/2000/svg">
<rect y="0.324951" width="31.35" height="31.35" rx="1.65" fill="#0000DD"/>
<path d="M4.9502 9.99995C4.9502 8.93735 5.80966 8.07495 6.86863 8.07495H21.668C22.727 8.07495 23.5864 8.93735 23.5864 9.99995V19.35C23.5864 19.8605 23.3843 20.3501 23.0245 20.7111C22.6648 21.0721 22.1768 21.275 21.668 21.275H6.86863C6.35983 21.275 5.87187 21.0721 5.51209 20.7111C5.15232 20.3501 4.9502 19.8605 4.9502 19.35V9.99995ZM8.23895 9.44995V10.55C8.23895 10.7688 8.15232 10.9786 7.99813 11.1333C7.84394 11.288 7.63482 11.375 7.41676 11.375H6.32051V13.025H7.41676C7.74067 13.025 8.06141 12.9609 8.36067 12.8366C8.65993 12.7122 8.93184 12.5299 9.16088 12.3C9.38992 12.0702 9.57161 11.7974 9.69556 11.4971C9.81952 11.1968 9.88332 10.875 9.88332 10.55V9.44995H8.23895ZM14.2683 17.425C14.9225 17.425 15.5499 17.1642 16.0124 16.7C16.475 16.2359 16.7349 15.6064 16.7349 14.95C16.7349 14.2935 16.475 13.664 16.0124 13.1999C15.5499 12.7357 14.9225 12.475 14.2683 12.475C13.6141 12.475 12.9868 12.7357 12.5242 13.1999C12.0616 13.664 11.8018 14.2935 11.8018 14.95C11.8018 15.6064 12.0616 16.2359 12.5242 16.7C12.9868 17.1642 13.6141 17.425 14.2683 17.425ZM6.32051 17.975H7.41676C7.63482 17.975 7.84394 18.0619 7.99813 18.2166C8.15232 18.3713 8.23895 18.5811 8.23895 18.8V19.9H9.88332V18.8C9.88332 18.1435 9.62345 17.514 9.16088 17.0499C8.69831 16.5857 8.07093 16.325 7.41676 16.325H6.32051V17.975ZM20.2977 18.8C20.2977 18.5811 20.3843 18.3713 20.5385 18.2166C20.6927 18.0619 20.9018 17.975 21.1199 17.975H22.2161V16.325H21.1199C20.4657 16.325 19.8383 16.5857 19.3758 17.0499C18.9132 17.514 18.6533 18.1435 18.6533 18.8V19.9H20.2977V18.8ZM20.2977 10.55V9.44995H18.6533V10.55C18.6533 10.875 18.7171 11.1968 18.8411 11.4971C18.965 11.7974 19.1467 12.0702 19.3758 12.3C19.8383 12.7642 20.4657 13.025 21.1199 13.025H22.2161V11.375H21.1199C20.9018 11.375 20.6927 11.288 20.5385 11.1333C20.3843 10.9786 20.2977 10.7688 20.2977 10.55ZM7.58229 22.9249C7.87094 23.4268 8.28625 23.8436 8.78641 24.1332C9.28658 24.4229 9.85396 24.5752 10.4314 24.5749H21.668C22.3518 24.5749 23.0289 24.4398 23.6607 24.1772C24.2925 23.9146 24.8665 23.5298 25.35 23.0446C25.8336 22.5594 26.2171 21.9834 26.4788 21.3495C26.7405 20.7155 26.8752 20.0361 26.8752 19.35V13.575C26.8754 12.9955 26.7235 12.4262 26.4348 11.9244C26.1462 11.4225 25.7309 11.0058 25.2308 10.7161V19.35C25.2308 20.2981 24.8555 21.2074 24.1873 21.8779C23.5191 22.5483 22.6129 22.9249 21.668 22.9249H7.58229Z" fill="#FFC200"/>
</svg>
