<svg width="22" height="16" viewBox="0 0 22 16" fill="none" xmlns="http://www.w3.org/2000/svg">
<path fill-rule="evenodd" clip-rule="evenodd" d="M21.0496 1.28332C21.2837 1.5177 21.4152 1.8354 21.4152 2.16666C21.4152 2.49791 21.2837 2.81561 21.0496 3.04999L9.38294 14.7167C9.14856 14.9507 8.83086 15.0822 8.4996 15.0822C8.16835 15.0822 7.85065 14.9507 7.61627 14.7167L0.949604 8.04999C0.826793 7.93555 0.728289 7.79755 0.659969 7.64422C0.59165 7.49089 0.554914 7.32536 0.551952 7.15753C0.548991 6.98969 0.579865 6.82297 0.642733 6.66733C0.705602 6.51168 0.799176 6.37029 0.917874 6.25159C1.03657 6.13289 1.17796 6.03932 1.33361 5.97645C1.48926 5.91358 1.65597 5.88271 1.82381 5.88567C1.99165 5.88863 2.15717 5.92537 2.3105 5.99369C2.46383 6.06201 2.60183 6.16051 2.71627 6.28332L8.4996 12.0667L19.2829 1.28332C19.5173 1.04924 19.835 0.917755 20.1663 0.917755C20.4975 0.917755 20.8152 1.04924 21.0496 1.28332Z" fill="#83DB00"/>
</svg>
