<svg width="70" height="77" viewBox="0 0 70 77" fill="none" xmlns="http://www.w3.org/2000/svg">
<path fill-rule="evenodd" clip-rule="evenodd" d="M16.8858 0.619019H53.1143C57.5296 0.619019 59.7353 0.619019 61.5182 1.23997C63.1991 1.83573 64.7201 2.81107 65.9629 4.09019C67.2057 5.36931 68.1368 6.91776 68.6839 8.61521C69.2858 10.4514 69.2858 12.7219 69.2858 17.2666V70.6152C69.2858 73.8838 65.5334 75.6209 63.1601 73.4495C62.4942 72.8342 61.6209 72.4926 60.7144 72.4926C59.8078 72.4926 58.9345 72.8342 58.2686 73.4495L56.4286 75.1333C55.2621 76.212 53.7317 76.8112 52.1429 76.8112C50.5541 76.8112 49.0237 76.212 47.8572 75.1333C46.6907 74.0546 45.1603 73.4554 43.5715 73.4554C41.9827 73.4554 40.4523 74.0546 39.2858 75.1333C38.1193 76.212 36.5889 76.8112 35.0001 76.8112C33.4112 76.8112 31.8809 76.212 30.7144 75.1333C29.5478 74.0546 28.0175 73.4554 26.4286 73.4554C24.8398 73.4554 23.3094 74.0546 22.1429 75.1333C20.9764 76.212 19.446 76.8112 17.8572 76.8112C16.2684 76.8112 14.738 76.212 13.5715 75.1333L11.7315 73.4495C11.0656 72.8342 10.1924 72.4926 9.28578 72.4926C8.3792 72.4926 7.50592 72.8342 6.84007 73.4495C4.46674 75.6209 0.714355 73.8838 0.714355 70.6152V17.2666C0.714355 12.7219 0.714355 10.4476 1.31626 8.61902C2.45912 5.14092 5.10674 2.4133 8.48197 1.23997C10.2648 0.619019 12.4705 0.619019 16.8858 0.619019ZM46.6572 25.3809C46.9073 25.1008 47.0999 24.7741 47.2237 24.4195C47.3476 24.065 47.4005 23.6895 47.3792 23.3145C47.358 22.9396 47.2631 22.5724 47.1 22.2341C46.9369 21.8958 46.7088 21.593 46.4286 21.3428C46.1485 21.0927 45.8218 20.9002 45.4673 20.7763C45.1127 20.6524 44.7372 20.5996 44.3623 20.6208C43.9873 20.642 43.6202 20.7369 43.2819 20.9C42.9436 21.0631 42.6407 21.2912 42.3905 21.5714L30.9201 34.4247L27.6058 30.7143C27.0993 30.1545 26.3918 29.818 25.638 29.7782C24.8841 29.7384 24.1452 29.9986 23.5825 30.5018C23.0199 31.0051 22.6793 31.7106 22.6351 32.4642C22.5909 33.2178 22.8467 33.9582 23.3467 34.5238L28.7867 40.619C29.0548 40.9193 29.3832 41.1595 29.7505 41.324C30.1178 41.4884 30.5157 41.5735 30.9182 41.5735C31.3206 41.5735 31.7185 41.4884 32.0858 41.324C32.4532 41.1595 32.7816 40.9193 33.0496 40.619L46.6572 25.3809ZM17.8572 49.1904C17.0995 49.1904 16.3727 49.4915 15.8369 50.0273C15.3011 50.5631 15.0001 51.2898 15.0001 52.0476C15.0001 52.8054 15.3011 53.5321 15.8369 54.0679C16.3727 54.6037 17.0995 54.9047 17.8572 54.9047H52.1429C52.9007 54.9047 53.6274 54.6037 54.1632 54.0679C54.6991 53.5321 55.0001 52.8054 55.0001 52.0476C55.0001 51.2898 54.6991 50.5631 54.1632 50.0273C53.6274 49.4915 52.9007 49.1904 52.1429 49.1904H17.8572Z" fill="#83DB00"/>
</svg>
