<svg width="12" height="14" viewBox="0 0 12 14" fill="none" xmlns="http://www.w3.org/2000/svg">
<path d="M11.2 7.7V12.6C11.2 12.9713 11.0525 13.3274 10.79 13.5899C10.5274 13.8525 10.1713 14 9.8 14C9.4287 14 9.0726 13.8525 8.81005 13.5899C8.5475 13.3274 8.4 12.9713 8.4 12.6V9.1H7V2.1C7 1.54305 7.22125 1.0089 7.61508 0.615076C8.0089 0.221249 8.54305 0 9.1 0L11.2 0V7.7ZM1.4 7C1.0287 7 0.672601 6.8525 0.41005 6.58995C0.1475 6.3274 0 5.9713 0 5.6V0.7C0 0.514348 0.0737498 0.336301 0.205025 0.205025C0.336301 0.0737498 0.514349 0 0.7 0C0.885652 0 1.0637 0.0737498 1.19497 0.205025C1.32625 0.336301 1.4 0.514348 1.4 0.7V3.5H2.1V0.7C2.1 0.514348 2.17375 0.336301 2.30503 0.205025C2.4363 0.0737498 2.61435 0 2.8 0C2.98565 0 3.1637 0.0737498 3.29497 0.205025C3.42625 0.336301 3.5 0.514348 3.5 0.7V3.5H4.2V0.7C4.2 0.514348 4.27375 0.336301 4.40503 0.205025C4.5363 0.0737498 4.71435 0 4.9 0C5.08565 0 5.2637 0.0737498 5.39498 0.205025C5.52625 0.336301 5.6 0.514348 5.6 0.7V5.6C5.6 5.9713 5.4525 6.3274 5.18995 6.58995C4.9274 6.8525 4.5713 7 4.2 7V12.6C4.2 12.9713 4.0525 13.3274 3.78995 13.5899C3.5274 13.8525 3.1713 14 2.8 14C2.4287 14 2.0726 13.8525 1.81005 13.5899C1.5475 13.3274 1.4 12.9713 1.4 12.6V7Z" fill="#0000DD"/>
</svg>
