<svg width="20" height="16" viewBox="0 0 20 16" fill="none" xmlns="http://www.w3.org/2000/svg">
<path d="M5.6798 15.2666C5.06673 15.2666 4.64751 14.6474 4.8752 14.0782L5.79984 11.7666C5.93984 11.4088 6.16539 11.1248 6.4765 10.9145C6.78762 10.7041 7.13762 10.5993 7.5265 10.5999H9.0665V6.84325C6.6865 6.76547 4.69135 6.41547 3.08104 5.79325C1.47073 5.17103 0.665882 4.43992 0.666504 3.59992C0.666504 2.6977 1.5765 1.9277 3.3965 1.28992C5.2165 0.652141 7.41761 0.333252 9.99984 0.333252C12.5976 0.333252 14.8028 0.652141 16.6153 1.28992C18.4278 1.9277 19.3338 2.6977 19.3332 3.59992C19.3332 4.43992 18.528 5.17103 16.9177 5.79325C15.3074 6.41547 13.3125 6.76547 10.9332 6.84325V10.5999H12.4732C12.8465 10.5999 13.1928 10.7051 13.512 10.9154C13.8312 11.1257 14.0605 11.4094 14.1998 11.7666L15.1245 14.0782C15.3522 14.6474 14.9329 15.2666 14.3199 15.2666C13.9655 15.2666 13.6469 15.0508 13.5153 14.7218L12.6132 12.4666H7.3865L6.4844 14.7218C6.3528 15.0508 6.03415 15.2666 5.6798 15.2666Z" fill="#0000DD"/>
</svg>
