<svg width="18" height="18" viewBox="0 0 18 18" fill="none" xmlns="http://www.w3.org/2000/svg">
<path d="M4.5548 1.88828C4.5548 1.41679 4.7421 0.964601 5.0755 0.631203C5.40889 0.297805 5.86108 0.110504 6.33257 0.110504H11.6659C12.1374 0.110504 12.5896 0.297805 12.923 0.631203C13.2564 0.964601 13.4437 1.41679 13.4437 1.88828V3.66606H16.9992C17.235 3.66606 17.4611 3.75971 17.6278 3.92641C17.7945 4.09311 17.8881 4.3192 17.8881 4.55495C17.8881 4.7907 17.7945 5.01679 17.6278 5.18349C17.4611 5.35019 17.235 5.44384 16.9992 5.44384H16.049L15.2784 16.2367C15.2464 16.6852 15.0457 17.105 14.7167 17.4115C14.3876 17.7179 13.9547 17.8883 13.505 17.8883H4.49257C4.04292 17.8883 3.60997 17.7179 3.28092 17.4115C2.95187 17.105 2.75117 16.6852 2.71924 16.2367L1.95035 5.44384H0.999241C0.763493 5.44384 0.5374 5.35019 0.370701 5.18349C0.204002 5.01679 0.110352 4.7907 0.110352 4.55495C0.110352 4.3192 0.204002 4.09311 0.370701 3.92641C0.5374 3.75971 0.763493 3.66606 0.999241 3.66606H4.5548V1.88828ZM6.33257 3.66606H11.6659V1.88828H6.33257V3.66606ZM3.73169 5.44384L4.49346 16.1105H13.5059L14.2677 5.44384H3.73169ZM7.22146 7.22162C7.45721 7.22162 7.6833 7.31527 7.85 7.48197C8.0167 7.64866 8.11035 7.87476 8.11035 8.11051V13.4438C8.11035 13.6796 8.0167 13.9057 7.85 14.0724C7.6833 14.2391 7.45721 14.3327 7.22146 14.3327C6.98572 14.3327 6.75962 14.2391 6.59292 14.0724C6.42623 13.9057 6.33257 13.6796 6.33257 13.4438V8.11051C6.33257 7.87476 6.42623 7.64866 6.59292 7.48197C6.75962 7.31527 6.98572 7.22162 7.22146 7.22162ZM10.777 7.22162C11.0128 7.22162 11.2389 7.31527 11.4056 7.48197C11.5723 7.64866 11.6659 7.87476 11.6659 8.11051V13.4438C11.6659 13.6796 11.5723 13.9057 11.4056 14.0724C11.2389 14.2391 11.0128 14.3327 10.777 14.3327C10.5413 14.3327 10.3152 14.2391 10.1485 14.0724C9.98178 13.9057 9.88813 13.6796 9.88813 13.4438V8.11051C9.88813 7.87476 9.98178 7.64866 10.1485 7.48197C10.3152 7.31527 10.5413 7.22162 10.777 7.22162Z" fill="#E5E5FF"/>
</svg>
