<svg width="16" height="16" viewBox="0 0 16 16" fill="none" xmlns="http://www.w3.org/2000/svg">
<path d="M13.3535 4.20876C13.1623 3.52996 12.7993 2.91194 12.2994 2.41444C11.7996 1.91695 11.1799 1.55678 10.5002 1.36876C10.3011 1.31881 10.0927 1.31881 9.89352 1.36876C9.70028 1.42832 9.52421 1.5335 9.38019 1.67543L8.16686 2.89543L2.94686 8.11543C2.75663 8.29007 2.63391 8.52607 2.60019 8.7821L2.27352 11.0621C2.24514 11.2454 2.26114 11.4329 2.32019 11.6088C2.38019 11.7834 2.47819 11.9434 2.60686 12.0754C2.73486 12.2088 2.89219 12.3088 3.06686 12.3688C3.19219 12.4088 3.32219 12.4288 3.45352 12.4288C3.50886 12.4354 3.56486 12.4354 3.62019 12.4288L5.92019 12.1021C6.16958 12.0566 6.40084 11.941 6.58686 11.7688L13.0335 5.3221C13.1722 5.17676 13.275 5.00095 13.3335 4.80876C13.3882 4.61326 13.395 4.40748 13.3535 4.20876ZM12.3735 4.5421C12.3663 4.57476 12.3502 4.60477 12.3269 4.62876L11.4602 5.49543L9.22686 3.28876L10.0869 2.4221C10.1115 2.39816 10.1411 2.37995 10.1735 2.36876C10.1998 2.36199 10.2273 2.36199 10.2535 2.36876C10.7571 2.5095 11.2166 2.77613 11.5886 3.14352C11.9607 3.51092 12.2331 3.96699 12.3802 4.46876C12.3832 4.4934 12.381 4.51841 12.3735 4.5421ZM13.4802 14.6688H2.52686C2.39425 14.6688 2.26707 14.6161 2.1733 14.5223C2.07953 14.4286 2.02686 14.3014 2.02686 14.1688C2.02686 14.0362 2.07953 13.909 2.1733 13.8152C2.26707 13.7214 2.39425 13.6688 2.52686 13.6688H13.4735C13.6061 13.6688 13.7333 13.7214 13.8271 13.8152C13.9208 13.909 13.9735 14.0362 13.9735 14.1688C13.9735 14.3014 13.9208 14.4286 13.8271 14.5223C13.7333 14.6161 13.6061 14.6688 13.4735 14.6688H13.4802Z" fill="#00001A"/>
</svg>
