<svg width="19" height="11" viewBox="0 0 19 11" fill="none" xmlns="http://www.w3.org/2000/svg">
<path fill-rule="evenodd" clip-rule="evenodd" d="M17.8308 10.0999C18.5096 9.87787 19 9.23938 19 8.48636V1.69727C19 0.759895 18.2401 0 17.3027 0H7.05756L10.4623 3.19194C11.0193 3.42445 11.4741 3.85268 11.741 4.3907L17.8308 10.0999ZM7.9271 3.55666C7.36149 4.015 6.99994 4.71528 6.99994 5.5C6.99994 6.88071 8.11923 8 9.49994 8C10.3425 8 11.0878 7.58314 11.5407 6.94441L14.9959 10.1836H1.69727C0.759896 10.1836 0 9.42374 0 8.48636V1.69728C0 0.759898 0.759895 0 1.69727 0H4.13333L7.9271 3.55666ZM3.45453 5.09181C3.45453 4.62312 3.83448 4.24317 4.30317 4.24317H4.33317C4.80186 4.24317 5.1818 4.62312 5.1818 5.09181C5.1818 5.5605 4.80186 5.94044 4.33317 5.94044H4.30317C3.83448 5.94044 3.45453 5.5605 3.45453 5.09181ZM14.6667 4.24316C14.198 4.24316 13.8181 4.62311 13.8181 5.0918C13.8181 5.56049 14.198 5.94044 14.6667 5.94044H14.6967C15.1654 5.94044 15.5453 5.56049 15.5453 5.0918C15.5453 4.62311 15.1654 4.24316 14.6967 4.24316H14.6667Z" fill="#0000DD"/>
</svg>
