<svg width="24" height="24" viewBox="0 0 24 24" fill="none" xmlns="http://www.w3.org/2000/svg">
<path d="M12.0002 9.005C13.0611 9.005 14.0785 9.42643 14.8286 10.1766C15.5788 10.9267 16.0002 11.9441 16.0002 13.005C16.0002 14.0659 15.5788 15.0833 14.8286 15.8334C14.0785 16.5836 13.0611 17.005 12.0002 17.005C10.9393 17.005 9.9219 16.5836 9.17176 15.8334C8.42161 15.0833 8.00019 14.0659 8.00019 13.005C8.00019 11.9441 8.42161 10.9267 9.17176 10.1766C9.9219 9.42643 10.9393 9.005 12.0002 9.005ZM12.0002 10.505C11.3371 10.505 10.7013 10.7684 10.2324 11.2372C9.76358 11.7061 9.50019 12.342 9.50019 13.005C9.50019 13.668 9.76358 14.3039 10.2324 14.7728C10.7013 15.2416 11.3371 15.505 12.0002 15.505C12.6632 15.505 13.2991 15.2416 13.768 14.7728C14.2368 14.3039 14.5002 13.668 14.5002 13.005C14.5002 12.342 14.2368 11.7061 13.768 11.2372C13.2991 10.7684 12.6632 10.505 12.0002 10.505ZM12.0002 5.5C16.6132 5.5 20.5962 8.65 21.7012 13.064C21.7496 13.2569 21.7194 13.4612 21.6172 13.6319C21.5149 13.8025 21.3491 13.9256 21.1562 13.974C20.9632 14.0224 20.759 13.9922 20.5883 13.89C20.4177 13.7878 20.2946 13.6219 20.2462 13.429C19.7832 11.5925 18.7204 9.96306 17.2262 8.79913C15.7321 7.6352 13.8921 7.00338 11.9981 7.00384C10.1041 7.0043 8.2645 7.63701 6.77092 8.80167C5.27733 9.96632 4.21529 11.5962 3.75319 13.433C3.72935 13.5286 3.68692 13.6186 3.62831 13.6978C3.56971 13.777 3.49608 13.8439 3.41162 13.8946C3.32717 13.9454 3.23354 13.979 3.1361 13.9935C3.03865 14.0081 2.93929 14.0033 2.84369 13.9795C2.74808 13.9557 2.65811 13.9132 2.57891 13.8546C2.4997 13.796 2.43282 13.7224 2.38207 13.6379C2.33133 13.5535 2.29771 13.4599 2.28315 13.3624C2.26858 13.265 2.27335 13.1656 2.29719 13.07C2.8395 10.9073 4.08884 8.98777 5.84679 7.61627C7.60474 6.24476 9.77052 5.49991 12.0002 5.5Z" fill="#1B1F24"/>
</svg>
