<svg width="16" height="16" viewBox="0 0 16 16" fill="none" xmlns="http://www.w3.org/2000/svg">
<path d="M11.3335 2.22667C12.347 2.81179 13.1886 3.65338 13.7737 4.66685C14.3588 5.68032 14.6668 6.82996 14.6668 8.00021C14.6668 9.17046 14.3588 10.3201 13.7736 11.3336C13.1885 12.347 12.3469 13.1886 11.3334 13.7737C10.3199 14.3588 9.17031 14.6669 8.00006 14.6668C6.82981 14.6668 5.68018 14.3588 4.66672 13.7736C3.65326 13.1885 2.81169 12.3469 2.22659 11.3334C1.64148 10.3199 1.33347 9.17025 1.3335 8L1.33683 7.784C1.37416 6.63266 1.70919 5.51064 2.30926 4.52733C2.90932 3.54402 3.75393 2.73297 4.76076 2.17325C5.76758 1.61354 6.90226 1.32426 8.05417 1.33362C9.20607 1.34299 10.3359 1.65066 11.3335 2.22667ZM8.00016 4C7.82335 4 7.65378 4.07024 7.52876 4.19526C7.40373 4.32029 7.3335 4.48986 7.3335 4.66667V8C7.3335 8.17681 7.40373 8.34638 7.52876 8.4714C7.65378 8.59643 7.82335 8.66667 8.00016 8.66667H10.3335C10.5103 8.66667 10.6799 8.59643 10.8049 8.4714C10.9299 8.34638 11.0002 8.17681 11.0002 8C11.0002 7.82319 10.9299 7.65362 10.8049 7.52859C10.6799 7.40357 10.5103 7.33333 10.3335 7.33333H8.66683V4.66667C8.66681 4.50338 8.60686 4.34578 8.49835 4.22375C8.38985 4.10173 8.24033 4.02377 8.07816 4.00467L8.00016 4Z" fill="#303136"/>
</svg>
