<svg width="24" height="25" viewBox="0 0 24 25" fill="none" xmlns="http://www.w3.org/2000/svg">
<path d="M17.6 8.50002C17.6 7.62002 16.88 6.90002 16 6.90002H14.4C13.96 6.90002 13.6 7.26002 13.6 7.70002C13.6 8.14002 13.96 8.50002 14.4 8.50002H16V10.62L13.216 14.1H10.4V10.9C10.4 10.46 10.04 10.1 9.6 10.1H7.2C5.432 10.1 4 11.532 4 13.3V14.9C4 15.34 4.36 15.7 4.8 15.7H5.6C5.6 17.028 6.672 18.1 8 18.1C9.328 18.1 10.4 17.028 10.4 15.7H13.216C13.704 15.7 14.16 15.476 14.464 15.1L17.248 11.62C17.48 11.332 17.6 10.98 17.6 10.62V8.50002ZM8 16.5C7.56 16.5 7.2 16.14 7.2 15.7H8.8C8.8 16.14 8.44 16.5 8 16.5Z" fill="#100C00"/>
<path d="M7.20002 7.69995H9.60002C10.04 7.69995 10.4 8.05995 10.4 8.49995C10.4 8.93995 10.04 9.29995 9.60002 9.29995H7.20002C6.76002 9.29995 6.40002 8.93995 6.40002 8.49995C6.40002 8.05995 6.76002 7.69995 7.20002 7.69995ZM17.6 13.3C16.272 13.3 15.2 14.372 15.2 15.7C15.2 17.028 16.272 18.1 17.6 18.1C18.928 18.1 20 17.028 20 15.7C20 14.372 18.928 13.3 17.6 13.3ZM17.6 16.5C17.16 16.5 16.8 16.14 16.8 15.7C16.8 15.26 17.16 14.9 17.6 14.9C18.04 14.9 18.4 15.26 18.4 15.7C18.4 16.14 18.04 16.5 17.6 16.5Z" fill="#100C00"/>
</svg>
