<svg width="13" height="16" viewBox="0 0 13 16" fill="none" xmlns="http://www.w3.org/2000/svg">
<path d="M12.8 8.8V14.4C12.8 14.8243 12.6314 15.2313 12.3314 15.5314C12.0313 15.8314 11.6243 16 11.2 16C10.7757 16 10.3687 15.8314 10.0686 15.5314C9.76857 15.2313 9.6 14.8243 9.6 14.4V10.4H8V2.4C8 1.76348 8.25286 1.15303 8.70294 0.702944C9.15303 0.252856 9.76348 0 10.4 0L12.8 0V8.8ZM1.6 8C1.17565 8 0.768687 7.83143 0.468629 7.53137C0.168571 7.23131 0 6.82435 0 6.4V0.8C0 0.587827 0.0842854 0.384344 0.234315 0.234315C0.384344 0.0842855 0.587827 0 0.8 0C1.01217 0 1.21566 0.0842855 1.36569 0.234315C1.51571 0.384344 1.6 0.587827 1.6 0.8V4H2.4V0.8C2.4 0.587827 2.48429 0.384344 2.63432 0.234315C2.78434 0.0842855 2.98783 0 3.2 0C3.41217 0 3.61566 0.0842855 3.76569 0.234315C3.91571 0.384344 4 0.587827 4 0.8V4H4.8V0.8C4.8 0.587827 4.88429 0.384344 5.03432 0.234315C5.18434 0.0842855 5.38783 0 5.6 0C5.81217 0 6.01566 0.0842855 6.16569 0.234315C6.31571 0.384344 6.4 0.587827 6.4 0.8V6.4C6.4 6.82435 6.23143 7.23131 5.93137 7.53137C5.63131 7.83143 5.22435 8 4.8 8V14.4C4.8 14.8243 4.63143 15.2313 4.33137 15.5314C4.03131 15.8314 3.62435 16 3.2 16C2.77565 16 2.36869 15.8314 2.06863 15.5314C1.76857 15.2313 1.6 14.8243 1.6 14.4V8Z" fill="#0000DD"/>
</svg>
