<svg width="130" height="129" viewBox="0 0 130 129" fill="none" xmlns="http://www.w3.org/2000/svg">
<g clip-path="url(#clip0_298_3411)">
<path d="M104.79 129H27.3539C12.5114 129 0.5 116.972 0.5 102.146V26.8539C0.5 12.0278 12.5278 0 27.3539 0H102.646C117.472 0 129.5 12.0278 129.5 26.8539V104.273C129.5 117.921 118.438 129 104.773 129" fill="#FFC200"/>
<path d="M63.159 39.1434C63.9609 33.3177 68.9847 29.0139 74.8595 29.1121L99.9133 29.5539L100.175 27.9011C100.65 24.8737 98.3096 22.1245 95.2331 22.1245H37.3034C34.8324 22.1245 32.7377 23.9246 32.3614 26.3465L31.134 34.1359C30.6595 37.1633 32.9996 39.9125 36.0761 39.9125H48.8566C51.9004 39.9125 54.2241 42.5963 53.815 45.6073L47.0565 93.7021C46.631 96.7131 48.9711 99.3969 52.0149 99.3969H54.7968L61.2935 53.0858C61.5553 51.2857 62.3408 45.0837 63.159 39.127" fill="#0544A8"/>
<path d="M102.712 29.6033L99.9133 29.5542L98.9478 35.6908C98.5714 38.1291 96.4768 39.9128 94.0058 39.9128H78.3615C75.8741 39.9128 73.7631 41.7456 73.4031 44.2166L66.2519 95.0933C65.9082 97.5643 63.7972 99.3972 61.2935 99.3972H54.7641L54.5186 101.181C54.0932 104.192 56.4333 106.876 59.477 106.876H68.7883C71.2757 106.876 73.3867 105.043 73.7467 102.572L80.8979 51.6951C81.2416 49.2241 83.3526 47.3913 85.8563 47.3913H101.501C103.972 47.3913 106.066 45.5912 106.443 43.1693L107.67 35.3799C108.145 32.3525 105.804 29.6033 102.728 29.6033" fill="white"/>
<path d="M66.2846 95.093L73.4358 44.2163C73.7794 41.7453 75.8904 39.9125 78.3942 39.9125H94.0385C96.5095 39.9125 98.6041 38.1124 98.9805 35.6905L99.946 29.5538L74.8922 29.112C69.0174 29.0138 63.9936 33.3176 63.1917 39.1433C62.3735 45.0999 61.5717 51.302 61.3262 53.1021L54.8296 99.4132H61.3589C63.8463 99.4132 65.9573 97.5803 66.3173 95.1093" fill="#3F9BF2"/>
</g>
<defs>
<clipPath id="clip0_298_3411">
<rect width="129" height="129" fill="white" transform="translate(0.5)"/>
</clipPath>
</defs>
</svg>
