<svg width="39" height="40" viewBox="0 0 39 40" fill="none" xmlns="http://www.w3.org/2000/svg">
<g clip-path="url(#clip0_4396_2797)">
<path d="M38.7879 0.788086H0V39.576H38.7879V0.788086Z" fill="#004F71"/>
<path d="M38.7879 35.7861H0V39.576H38.7879V35.7861Z" fill="#FFC200"/>
<path d="M10.8041 22.994C10.8041 22.994 9.23639 14.291 15.297 6.46875L18.1172 10.6061C18.1172 10.6061 12.4445 15.1314 10.8121 22.994H10.8041Z" fill="#FFC200"/>
<path d="M22.1495 10.396C22.1495 10.396 10.2465 16.5212 11.8869 31.0667C11.8869 31.0667 17.9394 22.7111 29.0748 21.1839L22.1495 10.396ZM20.792 21.0223C19.095 21.0223 17.7212 19.6485 17.7212 17.9516C17.7212 16.2546 19.095 14.8808 20.792 14.8808C22.4889 14.8808 23.8627 16.2546 23.8627 17.9516C23.8627 19.6485 22.4889 21.0223 20.792 21.0223Z" fill="#FFC200"/>
</g>
<defs>
<clipPath id="clip0_4396_2797">
<rect y="0.788086" width="38.7879" height="38.7879" rx="6.46465" fill="white"/>
</clipPath>
</defs>
</svg>
