<svg width="32" height="32" viewBox="0 0 32 32" fill="none" xmlns="http://www.w3.org/2000/svg">
<g clip-path="url(#clip0_3706_4424)">
<path d="M32 0H0V32H32V0Z" fill="#004F71"/>
<path d="M32 28.8733H0V32H32V28.8733Z" fill="#FFC200"/>
<path d="M8.91353 18.3201C8.91353 18.3201 7.6202 11.1401 12.6202 4.68677L14.9469 8.1001C14.9469 8.1001 10.2669 11.8334 8.9202 18.3201H8.91353Z" fill="#FFC200"/>
<path d="M18.2734 7.92676C18.2734 7.92676 8.45343 12.9801 9.80676 24.9801C9.80676 24.9801 14.8001 18.0868 23.9868 16.8268L18.2734 7.92676ZM17.1534 16.6934C15.7534 16.6934 14.6201 15.5601 14.6201 14.1601C14.6201 12.7601 15.7534 11.6268 17.1534 11.6268C18.5534 11.6268 19.6868 12.7601 19.6868 14.1601C19.6868 15.5601 18.5534 16.6934 17.1534 16.6934Z" fill="#FFC200"/>
</g>
<defs>
<clipPath id="clip0_3706_4424">
<rect width="32" height="32" rx="1.65" fill="white"/>
</clipPath>
</defs>
</svg>
