<svg width="40" height="40" viewBox="0 0 40 40" fill="none" xmlns="http://www.w3.org/2000/svg">
<rect width="40" height="40" rx="20" fill="#664E00" fill-opacity="0.2"/>
<path fill-rule="evenodd" clip-rule="evenodd" d="M21.2767 13.5533C21.3953 13.494 21.5325 13.4842 21.6583 13.5261C21.7841 13.568 21.888 13.6581 21.9474 13.7766L23.4147 16.7113C24.3167 16.7806 24.8827 16.9579 25.2481 17.4093C25.8481 18.1519 25.6087 19.2693 25.1301 21.5046L24.8441 22.8379C24.5194 24.3533 24.3574 25.1106 23.8074 25.5553C23.2574 25.9999 22.4827 25.9999 20.9334 25.9999H18.0667C16.5174 25.9999 15.7427 25.9999 15.1934 25.5553C14.6427 25.1106 14.4801 24.3533 14.1561 22.8379L13.8701 21.5046C13.3914 19.2693 13.1514 18.1519 13.7521 17.4093C14.1174 16.9573 14.6834 16.7806 15.5854 16.7113L17.0527 13.7766C17.1126 13.659 17.2165 13.5699 17.3418 13.5286C17.4671 13.4872 17.6036 13.4971 17.7217 13.5561C17.8397 13.615 17.9297 13.7182 17.972 13.8432C18.0142 13.9682 18.0054 14.1048 17.9474 14.2233L16.7241 16.6699C17.0461 16.6666 17.3974 16.6666 17.7814 16.6666H21.2187C21.6027 16.6666 21.9541 16.6666 22.2761 16.6699L21.0527 14.2233C20.9935 14.1046 20.9838 13.9673 21.0258 13.8415C21.0678 13.7158 21.1581 13.6125 21.2767 13.5533ZM16.3334 19.9999C16.3334 19.8673 16.3861 19.7402 16.4798 19.6464C16.5736 19.5526 16.7008 19.4999 16.8334 19.4999H22.1667C22.2993 19.4999 22.4265 19.5526 22.5203 19.6464C22.6141 19.7402 22.6667 19.8673 22.6667 19.9999C22.6667 20.1325 22.6141 20.2597 22.5203 20.3535C22.4265 20.4473 22.2993 20.4999 22.1667 20.4999H16.8334C16.7008 20.4999 16.5736 20.4473 16.4798 20.3535C16.3861 20.2597 16.3334 20.1325 16.3334 19.9999ZM18.1667 21.4999C18.0341 21.4999 17.907 21.5526 17.8132 21.6464C17.7194 21.7402 17.6667 21.8673 17.6667 21.9999C17.6667 22.1325 17.7194 22.2597 17.8132 22.3535C17.907 22.4473 18.0341 22.4999 18.1667 22.4999H20.8334C20.966 22.4999 21.0932 22.4473 21.187 22.3535C21.2807 22.2597 21.3334 22.1325 21.3334 21.9999C21.3334 21.8673 21.2807 21.7402 21.187 21.6464C21.0932 21.5526 20.966 21.4999 20.8334 21.4999H18.1667Z" fill="#00001A"/>
</svg>
