<svg width="39" height="39" viewBox="0 0 39 39" fill="none" xmlns="http://www.w3.org/2000/svg">
<g clip-path="url(#clip0_4396_2787)">
<path d="M38.7879 0H0V38.7879H38.7879V0Z" fill="black"/>
<path d="M17.1153 14.1336H9.63242C8.79202 14.1174 8.09707 14.7801 8.08091 15.6205C8.06475 16.4609 8.72737 17.1558 9.56778 17.172C9.59202 17.172 9.61626 17.172 9.6405 17.172H13.4546L7.31323 23.3134C6.73141 23.9194 6.75566 24.8811 7.36172 25.4629C7.95161 26.0205 8.87283 26.0205 9.46273 25.4629L15.6041 19.3215V23.1356C15.6203 23.976 16.3153 24.6386 17.1557 24.6225C17.9637 24.6063 18.6183 23.9518 18.6425 23.1356V15.6528C18.6425 14.8124 17.9637 14.1336 17.1233 14.1336" fill="white"/>
<path d="M21.6728 24.6544H29.1556C29.996 24.6705 30.691 24.0079 30.7071 23.1675C30.7233 22.3271 30.0607 21.6322 29.2203 21.616C29.196 21.616 29.1718 21.616 29.1475 21.616H25.3334L31.4748 15.4746C32.0809 14.8928 32.1051 13.9312 31.5233 13.3251C30.9415 12.719 29.9798 12.6948 29.3738 13.2766C29.3576 13.2928 29.3415 13.3089 29.3253 13.3251L23.1839 19.4665V15.6524C23.1677 14.812 22.4728 14.1493 21.6324 14.1655C20.8243 14.1817 20.1698 14.8362 20.1455 15.6524V23.1352C20.1455 23.9756 20.8243 24.6544 21.6647 24.6544" fill="#FF7900"/>
</g>
<defs>
<clipPath id="clip0_4396_2787">
<rect width="38.7879" height="38.7879" rx="4.84848" fill="white"/>
</clipPath>
</defs>
</svg>
