<svg width="16" height="14" viewBox="0 0 16 14" fill="none" xmlns="http://www.w3.org/2000/svg">
<path d="M15.9695 4.97154L14.8253 0.97079C14.7787 0.802827 14.6784 0.654755 14.5397 0.549256C14.4009 0.443758 14.2314 0.38665 14.0571 0.386681H1.94287C1.5828 0.386681 1.27075 0.626725 1.17473 0.97079L0.0305145 4.97154C-0.113512 5.47563 0.270559 5.98773 0.798658 5.98773H2.55899L1.59881 13.1891H3.19911L3.73521 9.18832H12.2728L12.8009 13.1891H14.4012L13.441 5.98773H15.2013C15.7294 5.98773 16.1135 5.47563 15.9695 4.97154ZM3.94324 7.58802L4.15928 5.98773H11.8407L12.0568 7.58802H3.94324Z" fill="#100C00"/>
</svg>
