<svg width="32" height="32" viewBox="0 0 32 32" fill="none" xmlns="http://www.w3.org/2000/svg">
<g clip-path="url(#clip0_3706_4398)">
<path d="M32 0H0V32H32V0Z" fill="black"/>
<path d="M14.1201 11.6599H7.94672C7.25339 11.6466 6.68006 12.1932 6.66672 12.8866C6.65339 13.5799 7.20006 14.1532 7.89339 14.1666C7.91339 14.1666 7.93339 14.1666 7.95339 14.1666H11.1001L6.03339 19.2332C5.55339 19.7332 5.57339 20.5266 6.07339 21.0066C6.56006 21.4666 7.32006 21.4666 7.80672 21.0066L12.8734 15.9399V19.0866C12.8867 19.7799 13.4601 20.3266 14.1534 20.3132C14.8201 20.2999 15.3601 19.7599 15.3801 19.0866V12.9132C15.3801 12.2199 14.8201 11.6599 14.1267 11.6599" fill="white"/>
<path d="M17.8801 20.34H24.0535C24.7468 20.3533 25.3201 19.8066 25.3334 19.1133C25.3468 18.42 24.8001 17.8466 24.1068 17.8333C24.0868 17.8333 24.0668 17.8333 24.0468 17.8333H20.9001L25.9668 12.7666C26.4668 12.2866 26.4868 11.4933 26.0068 10.9933C25.5268 10.4933 24.7334 10.4733 24.2334 10.9533C24.2201 10.9666 24.2068 10.98 24.1935 10.9933L19.1268 16.06V12.9133C19.1135 12.22 18.5401 11.6733 17.8468 11.6866C17.1801 11.7 16.6401 12.24 16.6201 12.9133V19.0866C16.6201 19.78 17.1801 20.34 17.8734 20.34" fill="#FF7900"/>
</g>
<defs>
<clipPath id="clip0_3706_4398">
<rect width="32" height="32" rx="1.65" fill="white"/>
</clipPath>
</defs>
</svg>
