<svg width="14" height="14" viewBox="0 0 14 14" fill="none" xmlns="http://www.w3.org/2000/svg">
<path d="M12.629 12.0313C12.5906 12.0978 12.5353 12.153 12.4688 12.1914C12.4023 12.2298 12.3268 12.25 12.25 12.25H1.74998C1.67322 12.2499 1.59783 12.2297 1.53139 12.1912C1.46494 12.1528 1.40977 12.0976 1.37143 12.0311C1.33308 11.9646 1.31291 11.8892 1.31293 11.8124C1.31295 11.7357 1.33316 11.6602 1.37154 11.5938C2.20443 10.1539 3.48795 9.12135 4.98584 8.6319C4.24491 8.19082 3.66926 7.51872 3.34728 6.71882C3.02531 5.91891 2.97481 5.03543 3.20354 4.20405C3.43227 3.37266 3.92759 2.63935 4.61343 2.11672C5.29927 1.59408 6.1377 1.31104 6.99998 1.31104C7.86225 1.31104 8.70069 1.59408 9.38653 2.11672C10.0724 2.63935 10.5677 3.37266 10.7964 4.20405C11.0252 5.03543 10.9747 5.91891 10.6527 6.71882C10.3307 7.51872 9.75504 8.19082 9.01412 8.6319C10.512 9.12135 11.7955 10.1539 12.6284 11.5938C12.6669 11.6602 12.6872 11.7357 12.6873 11.8124C12.6874 11.8892 12.6673 11.9647 12.629 12.0313Z" fill="#AEAFB7"/>
</svg>
