<svg width="24" height="24" viewBox="0 0 24 24" fill="none" xmlns="http://www.w3.org/2000/svg">
<g clip-path="url(#clip0_173_2210)">
<path fill-rule="evenodd" clip-rule="evenodd" d="M17.7216 11.2324C17.9252 11.4769 18.0234 11.7922 17.9946 12.109C17.9658 12.4258 17.8124 12.7183 17.568 12.922L12.768 16.9216C12.5226 17.1163 12.2108 17.2073 11.8992 17.1752C11.5875 17.1431 11.3008 16.9904 11.1003 16.7498C10.8997 16.5091 10.8012 16.1996 10.8259 15.8873C10.8505 15.575 10.9962 15.2847 11.232 15.0784L16.032 11.0776C16.2766 10.8741 16.592 10.7762 16.9089 10.8052C17.2257 10.8342 17.5181 10.9879 17.7216 11.2324Z" fill="#9999FF"/>
<path fill-rule="evenodd" clip-rule="evenodd" d="M6.2784 11.2324C6.48197 10.9879 6.77432 10.8342 7.09116 10.8052C7.40799 10.7762 7.72339 10.8741 7.968 11.0776L12.768 15.0784C12.8934 15.1779 12.9975 15.3014 13.0744 15.4417C13.1513 15.582 13.1994 15.7363 13.2158 15.8955C13.2322 16.0546 13.2166 16.2155 13.1699 16.3685C13.1232 16.5216 13.0464 16.6637 12.944 16.7867C12.8416 16.9096 12.7156 17.0108 12.5735 17.0843C12.4313 17.1578 12.2759 17.2021 12.1164 17.2147C11.9569 17.2273 11.7965 17.2078 11.6446 17.1575C11.4927 17.1072 11.3524 17.027 11.232 16.9216L6.43201 12.922C6.18766 12.7183 6.03422 12.4258 6.00542 12.109C5.97662 11.7922 6.07481 11.4769 6.2784 11.2324Z" fill="#9999FF"/>
<path fill-rule="evenodd" clip-rule="evenodd" d="M12 14.8C11.6818 14.8 11.3766 14.6736 11.1515 14.4485C10.9265 14.2235 10.8 13.9183 10.8 13.6V4C10.8 3.68174 10.9265 3.37652 11.1515 3.15148C11.3766 2.92643 11.6818 2.8 12 2.8C12.3183 2.8 12.6235 2.92643 12.8486 3.15148C13.0736 3.37652 13.2 3.68174 13.2 4V13.6C13.2 13.9183 13.0736 14.2235 12.8486 14.4485C12.6235 14.6736 12.3183 14.8 12 14.8Z" fill="#9999FF"/>
<path fill-rule="evenodd" clip-rule="evenodd" d="M17.7216 13.2325C17.9252 13.4769 18.0234 13.7922 17.9946 14.1091C17.9658 14.4259 17.8124 14.7183 17.568 14.9221L12.768 18.9217C12.5226 19.1164 12.2108 19.2074 11.8992 19.1753C11.5875 19.1432 11.3008 18.9905 11.1003 18.7498C10.8997 18.5092 10.8012 18.1996 10.8259 17.8873C10.8505 17.575 10.9962 17.2847 11.232 17.0785L16.032 13.0777C16.2766 12.8742 16.592 12.7762 16.9089 12.8052C17.2257 12.8343 17.5181 12.9879 17.7216 13.2325Z" fill="#0000DD"/>
<path fill-rule="evenodd" clip-rule="evenodd" d="M6.2784 13.2325C6.48197 12.9879 6.77432 12.8343 7.09116 12.8052C7.40799 12.7762 7.72339 12.8742 7.968 13.0777L12.768 17.0785C12.8934 17.1779 12.9975 17.3014 13.0744 17.4418C13.1513 17.5821 13.1994 17.7364 13.2158 17.8955C13.2322 18.0547 13.2166 18.2155 13.1699 18.3686C13.1232 18.5216 13.0464 18.6638 12.944 18.7867C12.8416 18.9096 12.7156 19.0108 12.5735 19.0843C12.4313 19.1579 12.2759 19.2022 12.1164 19.2148C11.9569 19.2274 11.7965 19.2079 11.6446 19.1576C11.4927 19.1072 11.3524 19.027 11.232 18.9217L6.43201 14.9221C6.18766 14.7183 6.03422 14.4259 6.00542 14.1091C5.97662 13.7922 6.07481 13.4769 6.2784 13.2325Z" fill="#0000DD"/>
<path fill-rule="evenodd" clip-rule="evenodd" d="M12 16.8C11.6818 16.8 11.3766 16.6736 11.1515 16.4486C10.9265 16.2235 10.8 15.9183 10.8 15.6V6.00005C10.8 5.68179 10.9265 5.37656 11.1515 5.15152C11.3766 4.92648 11.6818 4.80005 12 4.80005C12.3183 4.80005 12.6235 4.92648 12.8486 5.15152C13.0736 5.37656 13.2 5.68179 13.2 6.00005V15.6C13.2 15.9183 13.0736 16.2235 12.8486 16.4486C12.6235 16.6736 12.3183 16.8 12 16.8Z" fill="#0000DD"/>
</g>
<defs>
<clipPath id="clip0_173_2210">
<rect width="24" height="24" fill="white"/>
</clipPath>
</defs>
</svg>
