<svg width="20" height="20" viewBox="0 0 20 20" fill="none" xmlns="http://www.w3.org/2000/svg">
<path d="M15 13.3332C14.3433 13.3332 13.7508 13.5915 13.305 14.0057L7.425 10.5832C7.46667 10.3915 7.5 10.1998 7.5 9.99984C7.5 9.79984 7.46667 9.60817 7.425 9.4165L13.3 5.9915C13.75 6.40817 14.3417 6.6665 15 6.6665C16.3833 6.6665 17.5 5.54984 17.5 4.1665C17.5 2.78317 16.3833 1.6665 15 1.6665C13.6167 1.6665 12.5 2.78317 12.5 4.1665C12.5 4.3665 12.5333 4.55817 12.575 4.74984L6.7 8.17484C6.25 7.75817 5.65833 7.49984 5 7.49984C3.61667 7.49984 2.5 8.6165 2.5 9.99984C2.5 11.3832 3.61667 12.4998 5 12.4998C5.65833 12.4998 6.25 12.2415 6.7 11.8248L12.5733 15.2565C12.5264 15.4452 12.5018 15.6387 12.5 15.8332C12.5 16.3276 12.6466 16.811 12.9213 17.2221C13.196 17.6332 13.5865 17.9536 14.0433 18.1429C14.5001 18.3321 15.0028 18.3816 15.4877 18.2851C15.9727 18.1887 16.4181 17.9506 16.7678 17.6009C17.1174 17.2513 17.3555 16.8058 17.452 16.3209C17.5484 15.8359 17.4989 15.3333 17.3097 14.8765C17.1205 14.4196 16.8 14.0292 16.3889 13.7545C15.9778 13.4798 15.4945 13.3332 15 13.3332Z" fill="#0000DD"/>
</svg>
