<svg width="24" height="25" viewBox="0 0 24 25" fill="none" xmlns="http://www.w3.org/2000/svg">
<path d="M19 11.8607V19.0232C18.9203 19.2133 18.724 19.336 18.5155 19.3237C14.1678 19.3237 9.82611 19.3237 5.47832 19.3237C5.24529 19.3544 5.03066 19.1949 5 18.9619C5 18.9251 5 18.8822 5 18.8454V11.8607H18.8467C18.8958 11.8607 18.9448 11.8607 19 11.8607Z" fill="#100C00"/>
<path d="M19 9.48146C19 9.48146 18.9632 9.4324 18.9448 9.40788C18.5033 8.52483 18.0556 7.63565 17.6141 6.74647C17.6018 6.72194 17.5896 6.69128 17.5712 6.64835C17.9391 6.64835 18.3009 6.63608 18.6566 6.64835C18.8405 6.65448 18.9387 6.80166 19 6.9611V9.47533V9.48146Z" fill="#100C00"/>
<path d="M5.16553 11.0266L5.51507 10.3213C6.22028 8.91092 6.92549 7.5005 7.6307 6.08394C7.71656 5.87544 7.93119 5.74053 8.15808 5.75893C10.7214 5.75893 13.2847 5.75893 15.848 5.75893C16.0687 5.74053 16.2772 5.86931 16.3631 6.07781C17.1603 7.68446 17.9575 9.28499 18.7669 10.8855C18.7853 10.9284 18.8037 10.9652 18.8283 11.0204H5.16553V11.0266ZM12.003 9.68972C12.7266 9.68972 13.4502 9.68972 14.1738 9.68972C14.6583 9.69585 15.0569 9.31565 15.0692 8.8312C15.0753 8.34675 14.6951 7.94815 14.2106 7.93589C12.7389 7.92976 11.2671 7.92976 9.80153 7.93589C9.44586 7.92362 9.12698 8.14439 9.00434 8.47553C8.81424 8.91705 9.02273 9.43216 9.47039 9.62227C9.5869 9.67132 9.70955 9.69585 9.83833 9.68972C10.5619 9.69585 11.2855 9.68972 12.0092 9.68972" fill="#100C00"/>
<path d="M5 9.4508V7.04695C5 6.83845 5.15331 6.66675 5.3618 6.64835C5.71134 6.63608 6.06088 6.64835 6.43495 6.64835L5.03066 9.46307L5 9.4508Z" fill="#100C00"/>
</svg>
