<svg width="19" height="11" viewBox="0 0 19 11" fill="none" xmlns="http://www.w3.org/2000/svg">
<path fill-rule="evenodd" clip-rule="evenodd" d="M1.69727 0C0.759895 0 0 0.759898 0 1.69728V8.48636C0 9.42374 0.759896 10.1836 1.69727 10.1836H17.3027C18.2401 10.1836 19 9.42374 19 8.48636V1.69727C19 0.759895 18.2401 0 17.3027 0H1.69727ZM9.49991 7.63772C10.9308 7.63772 12.0908 6.49787 12.0908 5.09181C12.0908 3.68574 10.9308 2.5459 9.49991 2.5459C8.06899 2.5459 6.909 3.68574 6.909 5.09181C6.909 6.49787 8.06899 7.63772 9.49991 7.63772ZM4.30317 4.24317C3.83448 4.24317 3.45453 4.62312 3.45453 5.09181C3.45453 5.5605 3.83448 5.94044 4.30317 5.94044H4.33317C4.80186 5.94044 5.1818 5.5605 5.1818 5.09181C5.1818 4.62312 4.80186 4.24317 4.33317 4.24317H4.30317ZM13.8181 5.0918C13.8181 4.62311 14.198 4.24316 14.6667 4.24316H14.6967C15.1654 4.24316 15.5453 4.62311 15.5453 5.0918C15.5453 5.56049 15.1654 5.94044 14.6967 5.94044H14.6667C14.198 5.94044 13.8181 5.56049 13.8181 5.0918Z" fill="#0000DD"/>
</svg>
